# xmcd
# Track frame offsets:
# 150
# 13135
# 28463
# 45881
# 57636
# 71939
# 83604
# 94860
# 109640
# 126955
# 141116
#
# Disc length: 2007 seconds
# Revision: 0
# Processed by: cddbd v1.4PL0 Copyright (c) Steve Scherf et al.
# Submitted via: VisiTrax 2.9.5.180 - For more info visit www.synapsa.com
#
DISCID=9a07d50b
DTITLE=Frank Jansen - My way or the highway
DYEAR=1900
DGENRE=
TTITLE0=She don't love me anymore
TTITLE1=Lonely lady
TTITLE2=If I can't hold her tonight
TTITLE3=Another place and time
TTITLE4=If you ever need a fool
TTITLE5=My way or the highway
TTITLE6=Wrong state of mind
TTITLE7=Don't play this
TTITLE8=Me and my memories
TTITLE9=What's so good about goodbyes
TTITLE10=Cheatin' for awhile
EXTD=
EXTT0=
EXTT1=
EXTT2=
EXTT3=
EXTT4=
EXTT5=
EXTT6=
EXTT7=
EXTT8=
EXTT9=
EXTT10=
PLAYORDER=
